<?xml version="1.0" standalone="no"?>
<!DOCTYPE svg PUBLIC "-//W3C//DTD SVG 20010904//EN"
 "http://www.w3.org/TR/2001/REC-SVG-20010904/DTD/svg10.dtd">
<svg version="1.0" xmlns="http://www.w3.org/2000/svg"
 width="512.000000pt" height="512.000000pt" viewBox="0 0 512.000000 512.000000"
 preserveAspectRatio="xMidYMid meet">
<metadata>
Created by potrace 1.14, written by Peter Selinger 2001-2017
</metadata>
<g transform="translate(0.000000,512.000000) scale(0.100000,-0.100000)"
fill="#000000" stroke="none">
<path d="M4065 5020 c-26 -13 -703 -683 -2002 -1982 -1710 -1711 -1963 -1968
-1972 -2003 -33 -123 8 -185 243 -363 151 -114 284 -195 471 -287 307 -151
559 -228 920 -281 150 -22 548 -25 705 -6 557 69 1071 282 1502 624 132 104
362 334 466 466 577 729 777 1672 546 2570 -110 427 -354 890 -626 1188 -84
91 -168 116 -253 74z m148 -85 c10 -7 59 -64 110 -126 347 -433 553 -933 617
-1499 14 -124 15 -447 1 -580 -58 -544 -269 -1061 -609 -1490 -97 -122 -330
-355 -452 -452 -394 -312 -848 -510 -1365 -594 -135 -21 -547 -30 -697 -15
-353 37 -658 126 -983 286 -192 95 -363 204 -527 336 -119 96 -131 109 -142
151 -10 45 16 87 116 186 l95 94 124 -82 c304 -201 665 -339 1039 -397 162
-25 559 -25 718 0 832 132 1508 624 1872 1362 120 243 194 478 237 755 25 162
25 549 0 710 -60 384 -188 722 -394 1034 l-85 129 94 95 c51 52 107 100 123
108 32 14 78 10 108 -11z"/>
</g>
</svg>
